PathFileType	4	(X/Y/Z)	 s04c0401.trc
DataRate	CameraRate	NumFrames	NumMarkers	Units	OrigDataRate	OrigDataStartFrame	OrigNumFrames
200	200	4	50	mm	200	251	2000
Frame#	Time	racr			lacr			c7			jug			rlel			rdr			llel			ldr			s2			lic			ric			lasi			rasi			rpsi			lpsi			rgt			lgt			rth1			rth2			rth3			rth4			rlfc			rmfc			rsh1			rsh2			rsh3			rsh4			rlmal			rmmal			rcal			rtoe			rmt5			lth1			lth2			lth4			lth3			llfc			lmfc			lsh1			lsh2			lsh3			lsh4			llmal			lmmal			lcal			ltoe			lmt5			SBIKE			LBIKE			RBIKE			
		X1	Y1	Z1	X2	Y2	Z2	X3	Y3	Z3	X4	Y4	Z4	X5	Y5	Z5	X6	Y6	Z6	X7	Y7	Z7	X8	Y8	Z8	X9	Y9	Z9	X10	Y10	Z10	X11	Y11	Z11	X12	Y12	Z12	X13	Y13	Z13	X14	Y14	Z14	X15	Y15	Z15	X16	Y16	Z16	X17	Y17	Z17	X18	Y18	Z18	X19	Y19	Z19	X20	Y20	Z20	X21	Y21	Z21	X22	Y22	Z22	X23	Y23	Z23	X24	Y24	Z24	X25	Y25	Z25	X26	Y26	Z26	X27	Y27	Z27	X28	Y28	Z28	X29	Y29	Z29	X30	Y30	Z30	X31	Y31	Z31	X32	Y32	Z32	X33	Y33	Z33	X34	Y34	Z34	X35	Y35	Z35	X36	Y36	Z36	X37	Y37	Z37	X38	Y38	Z38	X39	Y39	Z39	X40	Y40	Z40	X41	Y41	Z41	X42	Y42	Z42	X43	Y43	Z43	X44	Y44	Z44	X45	Y45	Z45	X46	Y46	Z46	X47	Y47	Z47	X48	Y48	Z48	X49	Y49	Z49	X50	Y50	Z50	
251	1.2550	572.570701	1433.072624	-143.648939	630.702798	1399.098619	-364.683831	538.974226	1471.136460	-276.819092	548.430906	1313.070964	-257.515948	473.135047	1140.080290	-1.440532	685.156637	949.487336	-73.056106	523.786696	1162.170328	-545.111150	690.269540	955.085862	-447.013702	-29.688818	1207.014814	-276.690045	141.423354	1174.664754	-424.243834	129.712299	1188.420263	-109.579157	167.626699	1127.110042	-378.504281	158.493443	1130.886102	-151.012938	6.733601	1245.108654	-232.693541	11.266149	1244.710152	-310.196543	59.006501	1146.332967	-83.655262	83.303643	1107.870184	-456.370242	150.845676	1016.708316	-57.979255	222.982039	965.335550	-59.772613	261.599236	888.770400	-57.168338	247.823439	986.611343	-78.688576	329.573883	762.453561	-79.633618	315.508221	753.608985	-193.521160	232.304130	685.307597	-67.974309	180.357481	612.799741	-91.325383	100.356353	583.520307	-104.941559	204.359234	593.213609	-114.225797	-5.995328	475.524292	-127.652060	23.703417	478.320715	-211.123194	-81.486391	474.792511	-175.614355	185.778095	336.524658	-150.140674	111.187104	343.064548	-101.462832	131.895745	1036.632038	-461.261958	208.412316	995.517742	-459.902353	232.336688	1021.127304	-448.440786	255.383959	919.793749	-460.029045	357.471062	792.440996	-437.105328	388.190257	770.453379	-326.896961	349.719073	667.280298	-459.558860	354.544338	582.259330	-441.113613	316.834975	502.171596	-440.739251	383.326820	579.814810	-414.184610	284.452704	358.048752	-436.399746	280.258246	358.107411	-347.364785	205.992413	322.861803	-396.861103	507.056533	348.032663	-399.739823	441.906732	303.776450	-462.363221	-177.429460	938.123201	-278.664024	-3.050067	85.744508	-484.600311	-15.091276	80.492617	-84.206576	
252	1.2600	574.599604	1433.280954	-143.950519	633.654656	1398.554613	-365.318204	541.214658	1471.105816	-277.384521	550.893502	1313.207222	-257.596016	473.366021	1140.599127	-1.969634	684.815827	949.358660	-73.227329	524.930670	1162.396736	-545.986169	690.172966	955.040137	-446.692413	-27.103612	1207.295900	-277.414031	144.103290	1173.777675	-424.795992	131.965446	1189.144837	-110.197177	170.093163	1126.042407	-378.520210	160.496442	1131.273208	-151.416490	8.954051	1245.780884	-233.172049	13.890233	1244.732647	-311.154385	61.216693	1147.456244	-83.879513	85.462864	1107.134222	-456.494906	152.822257	1018.007250	-58.305735	225.048554	966.827754	-59.832662	263.959188	890.503159	-56.401067	250.027582	988.198388	-78.340446	332.400887	764.127706	-78.481291	318.660814	755.135565	-192.336484	234.714625	687.707199	-66.972394	182.270053	615.675403	-90.515584	102.067229	586.838982	-104.502765	206.174138	595.849365	-113.440885	-4.978884	479.744254	-127.605667	24.860412	482.661228	-210.941231	-80.470645	479.418790	-175.573821	186.465148	340.433539	-150.076967	111.842795	347.235584	-101.300074	133.282918	1035.650627	-461.316330	209.392546	993.787366	-460.008791	233.589292	1019.190194	-448.596751	255.609264	917.590868	-460.144795	356.686754	788.881539	-437.296516	387.413434	766.888094	-327.167562	348.952724	663.605773	-459.710020	353.862331	578.601795	-441.273303	316.236720	498.403016	-440.920032	382.743472	576.085366	-414.406957	284.081778	354.205538	-436.476423	279.656223	354.334781	-347.582097	205.565995	319.087407	-396.952133	506.619555	343.731007	-399.717084	441.444743	299.620139	-462.382466	-177.411826	938.230775	-278.520651	-3.042232	85.760412	-484.608061	-15.092989	80.506768	-84.210006	
253	1.2650	576.487023	1433.564792	-144.187512	636.546475	1398.015829	-365.912691	543.374272	1471.162382	-277.955287	553.315765	1313.401468	-257.654798	473.685396	1141.221828	-2.531083	684.531522	949.266998	-73.476322	526.031956	1162.742589	-546.723492	690.014104	955.006583	-446.419458	-24.367181	1207.686432	-278.268179	146.866384	1172.862200	-425.365918	134.258698	1189.840985	-110.848851	172.538270	1125.037996	-378.493355	162.539614	1131.787039	-151.709932	10.547482	1245.433591	-233.511715	15.430172	1244.804483	-311.351159	63.464080	1148.487801	-84.110630	87.604264	1106.376883	-456.601970	154.969939	1019.428793	-58.334473	227.302035	968.374425	-59.574042	266.463165	892.269439	-55.598244	252.186800	989.827995	-77.565631	335.306228	766.070158	-77.344157	321.886734	756.774433	-191.166629	237.208650	690.163528	-65.996840	184.336299	618.577909	-89.722061	103.977831	590.101973	-104.323937	208.126993	598.539728	-112.758902	-3.723776	484.055453	-127.421673	26.186172	486.963123	-210.746697	-79.251222	484.042104	-175.506318	187.221145	344.442337	-149.873315	112.582740	351.130478	-101.156286	134.785078	1034.606819	-461.169814	210.426998	992.041615	-460.171314	234.871720	1017.123164	-448.795140	255.936033	915.361442	-460.298439	355.873836	785.281817	-437.561994	386.600703	763.205952	-327.353504	348.223831	659.824944	-459.917832	353.165858	574.825652	-441.487639	315.579723	494.616784	-441.104823	382.010286	572.301907	-414.628942	283.556864	350.217533	-436.631222	279.156683	350.318667	-347.666667	204.973273	315.233098	-397.067327	506.112056	339.486683	-399.868268	440.840826	295.332634	-462.369779	-177.485807	938.171545	-278.755724	-3.033561	85.728861	-484.614525	-15.066000	80.495828	-84.208980	
254	1.2700	578.282745	1433.911803	-144.319424	639.401697	1397.527284	-366.506682	545.735250	1471.755399	-280.461744	555.679802	1313.719232	-257.741671	474.077126	1141.768123	-3.125222	684.339344	949.180236	-73.764086	527.142216	1163.099534	-547.378566	689.808169	955.004387	-446.172475	-21.754653	1207.907978	-279.013651	149.595286	1171.992461	-425.961187	136.495384	1190.625635	-111.438127	175.050165	1123.947134	-378.471376	164.637051	1132.250795	-152.121309	14.053312	1246.068900	-235.361825	19.355042	1244.581844	-313.216665	65.533337	1149.621170	-84.379130	89.882572	1105.524258	-456.706411	157.196025	1021.025281	-58.341686	229.697651	970.150963	-59.170786	269.068335	894.214734	-54.842120	254.529424	991.423782	-77.445948	338.211358	768.000867	-76.328197	325.273591	758.436337	-189.992984	239.839422	692.760538	-65.100321	186.475586	621.556682	-88.987673	106.444391	593.651140	-104.085797	210.201189	601.359222	-111.991135	-2.378929	488.395469	-127.361969	27.617406	491.218270	-210.531599	-77.814027	488.795268	-175.447616	188.116540	348.170769	-149.819977	113.564157	355.608903	-100.623232	136.270750	1033.568547	-461.272186	211.497052	990.185074	-460.379000	236.209616	1015.044537	-448.960445	256.214440	913.050473	-460.455459	355.220180	781.593382	-437.945784	385.775981	758.958048	-327.786478	347.418668	655.976399	-460.139791	352.353931	570.962518	-441.666823	314.810119	490.813234	-441.265553	381.008898	568.404961	-413.908229	282.957927	346.350921	-436.744025	278.721606	346.256222	-347.667882	204.320876	311.493896	-397.275981	505.571124	335.525355	-400.330677	440.166855	291.014524	-462.411115	-177.454063	938.169143	-278.791568	-3.032206	85.729241	-484.620126	-15.072780	80.507293	-84.215051	
